<svg width="32" height="32" viewBox="0 0 32 32" fill="none" xmlns="http://www.w3.org/2000/svg">
<path d="M16 5.33335C21.8814 5.33335 26.6667 10.1187 26.6667 16C26.6667 21.8814 21.8814 26.6667 16 26.6667C10.1187 26.6667 5.33335 21.8814 5.33335 16C5.33335 10.1187 10.1187 5.33335 16 5.33335ZM16 2.66669C8.63602 2.66669 2.66669 8.63602 2.66669 16C2.66669 23.364 8.63602 29.3334 16 29.3334C23.364 29.3334 29.3334 23.364 29.3334 16C29.3334 8.63602 23.364 2.66669 16 2.66669ZM22.6667 14.6667H17.3334V9.33335H14.6667V14.6667H9.33335V17.3334H14.6667V22.6667H17.3334V17.3334H22.6667V14.6667Z" fill="white"/>
</svg>
