<svg width="29" height="43" viewBox="0 0 29 43" fill="none" xmlns="http://www.w3.org/2000/svg">
<path d="M13.5058 0.21405C13.5058 0.21405 15.4987 2.46443 16.2864 4.18635C17.0847 5.93124 17.519 7.03472 17.4781 8.95312V8.95312C17.414 11.9651 15.2029 14.4193 13.2763 16.7353C12.0911 18.16 10.8069 19.8176 9.93076 21.2673C8.67481 23.3453 7.15014 26.8285 7.15014 26.8285C7.15014 26.8285 6.17916 29.6892 5.95845 31.5952C5.76218 33.2903 5.68399 34.2806 5.95845 35.9648C6.42724 38.8414 9.1363 42.7177 9.1363 42.7177C9.1363 42.7177 5.98986 41.358 4.36953 39.9371C2.62003 38.4029 1.65682 37.3315 0.794461 35.1703C0.471509 34.3609 0.247165 33.2106 0.121161 32.4353C0.0303776 31.8768 0 31.3116 0 30.7456V30.7456C0 28.1512 0.31373 25.5256 1.42816 23.1826C1.48187 23.0697 1.53556 22.9605 1.58892 22.8562C2.90304 20.2872 4.05688 19.0681 5.95845 16.8977C7.40419 15.2476 8.53154 14.6151 9.93076 12.9254C11.1385 11.467 11.9847 10.7017 12.7114 8.95312C13.5533 6.92724 13.5058 3.39189 13.5058 3.39189V0.21405Z" fill="url(#paint0_linear_6_353)"/>
<path d="M21.451 7.36412C21.451 7.36412 23.0784 10.6399 23.6353 12.0427C24.1995 13.4641 24.3386 14.179 24.231 15.706V15.706C24.0664 18.0423 22.973 20.1953 21.4524 21.9767C20.3421 23.2775 19.0888 24.8161 18.2726 26.0339C17.1957 27.6407 15.492 30.0062 15.492 30.0062C15.492 30.0062 14.1495 31.8849 13.8998 33.3951C13.6777 34.738 13.5769 35.524 13.7284 36.8766C13.9871 39.187 15.0313 42.3204 15.0313 42.3204C15.0313 42.3204 13.544 41.9269 12.3155 40.7315C10.9891 39.4408 10.328 37.5536 9.93291 35.9647C9.79013 35.3905 9.68846 34.6633 9.62368 34.0967C9.55437 33.4904 9.56917 32.8789 9.6365 32.2724V32.2724C9.83232 30.5082 10.287 28.7749 11.1057 27.2C11.2488 26.9246 11.3908 26.6608 11.5222 26.4312C12.6645 24.4356 13.1078 23.7167 14.7001 22.0616C15.9106 20.8033 16.6052 19.966 17.7804 18.6743C18.7948 17.5593 19.4955 16.9826 20.14 15.6177C20.21 15.4697 20.2783 15.3118 20.3447 15.1472C21.3331 12.698 21.4511 10.0053 21.451 7.36412V7.36412Z" fill="url(#paint1_linear_6_353)"/>
<path d="M26.9787 20.5411C27.4121 19.2049 27.3759 16.966 27.3759 16.966C27.3759 16.966 28.2547 18.8559 28.5676 20.1438C28.8992 21.5089 28.9648 22.3142 28.9648 23.7189C28.9648 25.1237 29.0227 25.965 28.5676 27.294C28.0934 28.6785 27.473 29.3113 26.5814 30.4718C25.3786 32.0376 24.2873 32.5443 23.0064 34.0469C22 35.2275 21.2723 35.8159 20.623 37.2247C20.1503 38.2504 19.902 38.8784 19.8285 40.0054C19.7572 41.1 20.2257 42.786 20.2257 42.786L19.6247 42.1849C18.4451 41.0053 17.2548 39.6745 17.0479 38.0192V38.0192C16.8517 36.4494 17.2862 35.5279 17.8424 34.0469C18.5534 32.1534 19.3451 31.2452 20.623 29.6774C21.7318 28.3169 22.7534 27.5104 23.801 26.1023C24.7544 24.8209 25.0485 24.7378 25.7872 23.3217C26.2684 22.399 26.6575 21.5309 26.9787 20.5411Z" fill="url(#paint2_linear_6_353)"/>
<defs>
<linearGradient id="paint0_linear_6_353" x1="8.74039" y1="0.21405" x2="13.0422" y2="79.1137" gradientUnits="userSpaceOnUse">
<stop offset="0.142532" stop-color="white"/>
<stop offset="0.274941" stop-color="#A4DFFC"/>
<stop offset="0.47838" stop-color="#3A66FF"/>
<stop offset="0.57188" stop-color="#010617"/>
</linearGradient>
<linearGradient id="paint1_linear_6_353" x1="17.735" y1="7.18116" x2="18.2521" y2="72.6636" gradientUnits="userSpaceOnUse">
<stop offset="0.142532" stop-color="white"/>
<stop offset="0.274941" stop-color="#A4DFFC"/>
<stop offset="0.47838" stop-color="#3A66FF"/>
<stop offset="0.57188" stop-color="#010617"/>
</linearGradient>
<linearGradient id="paint2_linear_6_353" x1="22.9836" y1="16.966" x2="25.3039" y2="64.9259" gradientUnits="userSpaceOnUse">
<stop offset="0.142532" stop-color="white"/>
<stop offset="0.274941" stop-color="#A4DFFC"/>
<stop offset="0.47838" stop-color="#3A66FF"/>
<stop offset="0.57188" stop-color="#010617"/>
</linearGradient>
</defs>
</svg>
