<svg width="27" height="24" viewBox="0 0 27 24" fill="none" xmlns="http://www.w3.org/2000/svg">
<path d="M12.9868 21.03C10.6568 21.03 8.32679 20.66 6.11679 19.92C5.27679 19.63 4.63679 19.04 4.35679 18.27C4.06679 17.5 4.16679 16.65 4.62679 15.89L5.77679 13.98C6.01679 13.58 6.23679 12.78 6.23679 12.31V9.41998C6.23679 5.69998 9.26679 2.66998 12.9868 2.66998C16.7068 2.66998 19.7368 5.69998 19.7368 9.41998V12.31C19.7368 12.77 19.9568 13.58 20.1968 13.99L21.3368 15.89C21.7668 16.61 21.8468 17.48 21.5568 18.27C21.2668 19.06 20.6368 19.66 19.8468 19.92C17.6468 20.66 15.3168 21.03 12.9868 21.03ZM12.9868 4.16998C10.0968 4.16998 7.73679 6.51998 7.73679 9.41998V12.31C7.73679 13.04 7.43679 14.12 7.06679 14.75L5.91679 16.66C5.69679 17.03 5.63679 17.42 5.76679 17.75C5.88679 18.09 6.18679 18.35 6.59679 18.49C10.7768 19.89 15.2068 19.89 19.3868 18.49C19.7468 18.37 20.0268 18.1 20.1568 17.74C20.2868 17.38 20.2568 16.99 20.0568 16.66L18.9068 14.75C18.5268 14.1 18.2368 13.03 18.2368 12.3V9.41998C18.2368 6.51998 15.8868 4.16998 12.9868 4.16998Z" fill="#F6F6F7"/>
<path d="M14.8468 4.43999C14.7768 4.43999 14.7068 4.42999 14.6368 4.40999C14.3468 4.32999 14.0668 4.26999 13.7968 4.22999C12.9468 4.11999 12.1268 4.17999 11.3568 4.40999C11.0768 4.49999 10.7768 4.40999 10.5868 4.19999C10.3968 3.98999 10.3368 3.68999 10.4468 3.41999C10.8568 2.36999 11.8568 1.67999 12.9968 1.67999C14.1368 1.67999 15.1368 2.35999 15.5468 3.41999C15.6468 3.68999 15.5968 3.98999 15.4068 4.19999C15.2568 4.35999 15.0468 4.43999 14.8468 4.43999Z" fill="#F6F6F7"/>
<path d="M12.9868 23.31C11.9968 23.31 11.0368 22.91 10.3368 22.21C9.63682 21.51 9.23682 20.55 9.23682 19.56H10.7368C10.7368 20.15 10.9768 20.73 11.3968 21.15C11.8168 21.57 12.3968 21.81 12.9868 21.81C14.2268 21.81 15.2368 20.8 15.2368 19.56H16.7368C16.7368 21.63 15.0568 23.31 12.9868 23.31Z" fill="#F6F6F7"/>
<circle cx="17.9668" cy="5.5" r="2.5" fill="#F46D22" stroke="white"/>
</svg>
