<svg width="25" height="26" viewBox="0 0 25 26" fill="none" xmlns="http://www.w3.org/2000/svg">
<path d="M12.5 3.77148C7.53125 3.77148 3.5 7.93188 3.5 13.0598C3.5 18.1878 7.53125 22.3482 12.5 22.3482C17.4687 22.3482 21.5 18.1878 21.5 13.0598C21.5 7.93188 17.4687 3.77148 12.5 3.77148ZM12.2187 18.478C12.0333 18.478 11.8521 18.4213 11.6979 18.315C11.5437 18.2086 11.4236 18.0575 11.3526 17.8807C11.2817 17.7039 11.2631 17.5094 11.2993 17.3217C11.3354 17.134 11.4247 16.9616 11.5558 16.8263C11.6869 16.691 11.854 16.5989 12.0359 16.5615C12.2177 16.5242 12.4062 16.5434 12.5775 16.6166C12.7488 16.6898 12.8952 16.8138 12.9983 16.9729C13.1013 17.1321 13.1562 17.3191 13.1562 17.5105C13.1562 17.7671 13.0575 18.0132 12.8817 18.1946C12.7058 18.3761 12.4674 18.478 12.2187 18.478V18.478ZM13.7862 13.5436C13.0264 14.0699 12.9219 14.5522 12.9219 14.9949C12.9219 15.1745 12.8527 15.3468 12.7297 15.4738C12.6066 15.6008 12.4397 15.6722 12.2656 15.6722C12.0916 15.6722 11.9247 15.6008 11.8016 15.4738C11.6785 15.3468 11.6094 15.1745 11.6094 14.9949C11.6094 13.935 12.0819 13.0922 13.0541 12.4183C13.9578 11.7923 14.4687 11.3957 14.4687 10.5234C14.4687 9.93033 14.1406 9.47994 13.4614 9.14662C13.3016 9.06825 12.9458 8.99182 12.508 8.99714C11.9586 9.0044 11.532 9.13985 11.2034 9.4127C10.5837 9.92742 10.5312 10.4876 10.5312 10.4959C10.5271 10.5848 10.506 10.672 10.4692 10.7525C10.4324 10.8331 10.3805 10.9053 10.3167 10.9652C10.2528 11.0251 10.1781 11.0713 10.0969 11.1014C10.0157 11.1315 9.92954 11.1448 9.84336 11.1405C9.75718 11.1362 9.67266 11.1144 9.59463 11.0764C9.5166 11.0384 9.44659 10.9849 9.38859 10.919C9.33059 10.8531 9.28574 10.776 9.25659 10.6922C9.22745 10.6084 9.21459 10.5195 9.21875 10.4305C9.2239 10.313 9.30312 9.25402 10.3798 8.36002C10.9381 7.89657 11.6483 7.65565 12.4892 7.64501C13.0845 7.63775 13.6437 7.74176 14.023 7.92656C15.1578 8.48048 15.7812 9.40399 15.7812 10.5234C15.7812 12.16 14.7214 12.8949 13.7862 13.5436Z" fill="#2656D6"/>
</svg>
