<svg width="4" height="8" viewBox="0 0 4 8" fill="none" xmlns="http://www.w3.org/2000/svg">
<path d="M0.174608 0.645518C0.122075 0.694222 0.0796515 0.752796 0.0497585 0.817897C0.0198656 0.882998 0.00308927 0.953349 0.000387953 1.02493C-0.00231336 1.09652 0.00911311 1.16794 0.0340148 1.2351C0.0589164 1.30227 0.0968054 1.36388 0.145518 1.4164L2.71052 4.13631L0.145518 6.85622C0.0968112 6.90875 0.0589274 6.97035 0.0340293 7.03752C0.00913128 7.10469 -0.00229318 7.1761 0.000408066 7.24768C0.00310932 7.31927 0.0198834 7.38962 0.0497727 7.45472C0.0796621 7.51982 0.122081 7.57839 0.174608 7.6271C0.227135 7.67581 0.288741 7.71369 0.355909 7.73859C0.423077 7.76349 0.494491 7.77491 0.566074 7.77221C0.637657 7.76951 0.708008 7.75274 0.773108 7.72285C0.838209 7.69296 0.896785 7.65054 0.945491 7.59801L3.85448 4.50721C3.94802 4.40635 4 4.27387 4 4.13631C4 3.99875 3.94802 3.86627 3.85448 3.76541L0.945491 0.674608C0.896788 0.622076 0.838213 0.579651 0.773112 0.549758C0.708012 0.519865 0.63766 0.503089 0.566075 0.500388C0.49449 0.497687 0.423074 0.509113 0.355906 0.534015C0.288737 0.558916 0.227132 0.596806 0.174608 0.645518Z" fill="black"/>
</svg>
