<svg width="11" height="11" viewBox="0 0 11 11" fill="none" xmlns="http://www.w3.org/2000/svg">
<path opacity="0.9" d="M10.9668 5.9801C10.9668 6.13923 10.9036 6.29184 10.7911 6.40437C10.6785 6.51689 10.5259 6.5801 10.3668 6.5801H6.5668V10.3801C6.5668 10.5392 6.50358 10.6918 6.39106 10.8044C6.27854 10.9169 6.12593 10.9801 5.9668 10.9801C5.80767 10.9801 5.65505 10.9169 5.54253 10.8044C5.43001 10.6918 5.3668 10.5392 5.3668 10.3801V6.5801H1.5668C1.40767 6.5801 1.25505 6.51689 1.14253 6.40437C1.03001 6.29184 0.966797 6.13923 0.966797 5.9801C0.966797 5.82097 1.03001 5.66836 1.14253 5.55584C1.25505 5.44332 1.40767 5.3801 1.5668 5.3801H5.3668V1.5801C5.3668 1.42097 5.43001 1.26836 5.54253 1.15584C5.65505 1.04332 5.80767 0.980103 5.9668 0.980103C6.12593 0.980103 6.27854 1.04332 6.39106 1.15584C6.50358 1.26836 6.5668 1.42097 6.5668 1.5801V5.3801H10.3668C10.5259 5.3801 10.6785 5.44332 10.7911 5.55584C10.9036 5.66836 10.9668 5.82097 10.9668 5.9801Z" fill="#F6F6F7"/>
</svg>
