<svg width="24" height="25" viewBox="0 0 24 25" fill="none" xmlns="http://www.w3.org/2000/svg">
<path opacity="0.9" d="M24 12.5C24 12.8819 23.8483 13.2482 23.5782 13.5182C23.3082 13.7883 22.9419 13.94 22.56 13.94H13.44V23.06C13.44 23.4419 13.2883 23.8082 13.0182 24.0782C12.7482 24.3483 12.3819 24.5 12 24.5C11.6181 24.5 11.2518 24.3483 10.9818 24.0782C10.7117 23.8082 10.56 23.4419 10.56 23.06V13.94H1.44C1.05809 13.94 0.691819 13.7883 0.421766 13.5182C0.151714 13.2482 0 12.8819 0 12.5C0 12.1181 0.151714 11.7518 0.421766 11.4818C0.691819 11.2117 1.05809 11.06 1.44 11.06H10.56V1.94C10.56 1.55809 10.7117 1.19182 10.9818 0.921766C11.2518 0.651714 11.6181 0.5 12 0.5C12.3819 0.5 12.7482 0.651714 13.0182 0.921766C13.2883 1.19182 13.44 1.55809 13.44 1.94V11.06H22.56C22.9419 11.06 23.3082 11.2117 23.5782 11.4818C23.8483 11.7518 24 12.1181 24 12.5Z" fill="#F6F6F7"/>
</svg>
