<svg width="7" height="13" viewBox="0 0 7 13" fill="none" xmlns="http://www.w3.org/2000/svg">
<path d="M6.23158 0.342019C6.31605 0.44973 6.38306 0.57767 6.42879 0.718516C6.47451 0.859362 6.49805 1.01035 6.49805 1.16283C6.49805 1.31531 6.47451 1.4663 6.42879 1.60714C6.38306 1.74799 6.31605 1.87593 6.23158 1.98364L2.69621 6.50101L6.23158 11.0184C6.40195 11.2361 6.49766 11.5313 6.49766 11.8392C6.49766 12.1471 6.40195 12.4423 6.23158 12.66C6.06121 12.8777 5.83014 13 5.5892 13C5.34826 13 5.11719 12.8777 4.94682 12.66L0.764515 7.316C0.680045 7.20829 0.61303 7.08035 0.567306 6.93951C0.521582 6.79866 0.498047 6.64768 0.498047 6.49519C0.498047 6.34271 0.521582 6.19172 0.567306 6.05088C0.61303 5.91003 0.680045 5.78209 0.764515 5.67438L4.94682 0.330376C5.29307 -0.112047 5.87622 -0.112047 6.23158 0.342019Z" fill="#B6B6B6"/>
</svg>
