<svg width="7" height="13" viewBox="0 0 7 13" fill="none" xmlns="http://www.w3.org/2000/svg">
<path d="M0.768422 0.342019C0.683952 0.44973 0.616937 0.57767 0.571213 0.718516C0.525489 0.859362 0.501953 1.01035 0.501953 1.16283C0.501953 1.31531 0.525489 1.4663 0.571213 1.60714C0.616937 1.74799 0.683952 1.87593 0.768422 1.98364L4.30379 6.50101L0.768422 11.0184C0.598052 11.2361 0.502339 11.5313 0.502339 11.8392C0.502339 12.1471 0.598052 12.4423 0.768422 12.66C0.938791 12.8777 1.16986 13 1.4108 13C1.65174 13 1.88281 12.8777 2.05318 12.66L6.23549 7.316C6.31996 7.20829 6.38697 7.08035 6.43269 6.93951C6.47842 6.79866 6.50195 6.64768 6.50195 6.49519C6.50195 6.34271 6.47842 6.19172 6.43269 6.05088C6.38697 5.91003 6.31996 5.78209 6.23549 5.67438L2.05318 0.330376C1.70693 -0.112047 1.12378 -0.112047 0.768422 0.342019Z" fill="#B6B6B6"/>
</svg>
